<?xml version="1.0" standalone="no"?>
<!DOCTYPE svg PUBLIC "-//W3C//DTD SVG 20010904//EN"
 "http://www.w3.org/TR/2001/REC-SVG-20010904/DTD/svg10.dtd">
<svg version="1.0" xmlns="http://www.w3.org/2000/svg"
 width="512.000000pt" height="512.000000pt" viewBox="0 0 512.000000 512.000000"
 preserveAspectRatio="xMidYMid meet">
<metadata>
Created by potrace 1.11, written by Peter Selinger 2001-2013
</metadata>
<g transform="translate(0.000000,512.000000) scale(0.100000,-0.100000)"
fill="#000000" stroke="none">
<path d="M3607 4975 c-2 -2 -32 -7 -122 -19 -32 -5 -75 -16 -157 -43 -43 -13
-81 -24 -85 -24 -5 0 -15 -6 -23 -13 -14 -11 -53 -33 -124 -70 -15 -8 -39 -24
-54 -37 -15 -13 -38 -31 -52 -40 -67 -43 -208 -202 -256 -289 -10 -19 -25 -41
-32 -48 -7 -8 -10 -18 -7 -23 4 -5 2 -9 -2 -9 -18 0 -93 -198 -108 -285 -2
-11 -6 -33 -10 -50 -22 -100 -9 -365 24 -472 5 -18 7 -33 4 -33 -3 0 -1 -6 4
-12 5 -7 17 -35 27 -63 22 -62 58 -139 69 -143 4 -2 7 -10 7 -18 0 -11 -10
-13 -37 -11 -21 2 -48 0 -59 -4 -12 -4 -25 -5 -28 -2 -5 5 -198 8 -221 3 -5
-1 -14 -2 -20 -1 -5 2 -57 3 -115 3 l-105 0 2 127 c2 122 -12 232 -39 311 -7
19 -13 37 -13 40 -10 37 -88 190 -97 190 -4 0 -8 8 -8 18 0 9 -9 23 -20 30
-11 7 -20 17 -20 22 0 22 -110 133 -207 208 -98 76 -286 154 -428 177 -64 10
-238 13 -263 3 -13 -4 -21 -4 -18 0 3 5 -23 2 -57 -6 -88 -20 -201 -55 -205
-64 -2 -5 -9 -8 -15 -8 -34 -1 -250 -137 -241 -152 3 -4 0 -8 -7 -8 -13 0
-123 -113 -157 -162 -28 -39 -66 -101 -67 -108 0 -3 -11 -24 -23 -46 -11 -23
-18 -44 -15 -48 4 -3 2 -6 -4 -6 -9 0 -21 -23 -27 -55 -1 -5 -5 -17 -9 -25
-13 -31 -26 -93 -21 -102 3 -4 2 -8 -3 -8 -22 0 -20 -305 2 -390 3 -14 7 -32
9 -40 4 -31 41 -135 48 -138 5 -2 8 -10 8 -18 0 -7 10 -30 22 -51 11 -21 30
-55 41 -75 11 -20 33 -51 49 -68 15 -17 28 -35 28 -40 0 -10 165 -163 182
-169 7 -2 20 -11 29 -20 10 -9 40 -27 66 -41 26 -13 52 -31 57 -38 12 -21 13
-242 1 -242 -7 0 -7 -3 0 -8 6 -4 10 -55 10 -117 0 -62 -4 -113 -10 -117 -7
-5 -7 -8 0 -8 7 0 10 -151 10 -432 0 -277 -4 -436 -10 -440 -7 -5 -7 -8 0 -8
6 0 10 -48 10 -123 1 -88 6 -137 18 -177 18 -54 47 -120 58 -130 3 -3 15 -21
26 -40 43 -71 194 -192 255 -204 7 -2 20 -6 28 -9 45 -16 80 -24 125 -26 27
-1 50 -3 51 -4 1 -1 5 -22 9 -47 14 -97 103 -201 195 -228 8 -3 391 -6 850 -7
872 -2 903 -1 943 40 8 8 17 12 20 9 2 -3 23 17 46 43 41 48 71 116 71 160 0
27 -1 27 98 42 84 13 157 41 222 85 53 37 143 128 161 165 7 14 18 33 24 41
13 17 43 94 51 131 14 64 17 121 17 331 0 201 2 228 16 229 101 7 158 2 183
-13 14 -10 31 -18 37 -18 6 0 11 -4 11 -10 0 -5 4 -10 9 -10 5 0 66 -36 135
-80 70 -44 131 -80 136 -80 6 0 10 -4 10 -10 0 -5 7 -10 15 -10 8 0 15 -4 15
-10 0 -5 5 -10 11 -10 5 0 36 -17 67 -38 32 -20 66 -42 77 -49 11 -7 47 -29
80 -49 51 -31 70 -37 122 -39 37 -1 64 3 66 9 2 6 3 357 3 781 l-1 770 -60 3
c-72 4 -68 6 -300 -144 -33 -21 -62 -39 -65 -39 -14 -3 -70 -41 -70 -47 0 -5
-6 -8 -12 -8 -11 0 -34 -14 -121 -73 -10 -6 -23 -11 -28 -9 -5 1 -9 -2 -9 -7
0 -5 -35 -29 -77 -54 -75 -43 -81 -44 -164 -45 l-85 -1 -1 310 c0 170 2 307 5
305 2 -3 16 0 31 6 14 6 33 11 41 12 19 3 41 12 117 47 35 16 66 29 69 28 4 0
11 6 16 15 5 9 15 16 23 16 15 0 139 91 168 123 9 11 17 17 17 14 0 -7 55 52
101 107 13 16 29 34 34 40 6 6 29 41 52 78 86 136 151 306 156 411 1 9 4 17 7
17 3 0 6 12 7 28 0 15 3 67 5 115 6 138 -17 294 -64 422 -32 86 -134 275 -149
275 -5 0 -9 6 -9 14 0 27 -202 221 -285 273 -65 41 -198 113 -208 112 -5 -1
-44 13 -59 22 -10 5 -28 9 -41 9 -13 0 -27 3 -31 7 -3 4 -12 8 -19 9 -28 4
-84 14 -112 20 -29 5 -242 13 -248 9z m203 -339 c0 -8 -15 -57 -34 -110 -19
-53 -33 -96 -31 -96 2 0 -4 -20 -15 -44 -10 -24 -16 -47 -13 -50 4 -3 2 -6 -3
-6 -5 0 -11 -12 -12 -27 -1 -15 -8 -30 -15 -35 -6 -4 -9 -8 -5 -8 4 0 3 -12
-3 -27 -6 -16 -12 -36 -15 -47 -4 -24 -5 -25 -35 -30 -13 -2 -25 -5 -26 -7 -2
-1 -7 -3 -13 -4 -5 -1 -13 -4 -17 -5 -5 -1 -11 -2 -15 -1 -5 0 -8 -3 -8 -9 0
-5 -7 -10 -15 -10 -8 0 -15 -4 -15 -10 0 -5 -4 -10 -9 -10 -12 0 -461 220
-461 226 0 14 116 134 130 134 6 0 10 4 10 8 0 12 122 90 185 117 30 14 55 23
55 20 0 -2 15 2 33 10 18 7 53 16 77 20 25 4 46 8 48 10 2 2 53 3 113 4 84 0
109 -3 109 -13z m300 -97 c0 -5 7 -9 15 -9 8 0 15 -4 15 -10 0 -5 4 -10 10
-10 31 0 240 -216 240 -248 0 -5 7 -15 15 -22 9 -7 13 -15 11 -18 -3 -3 4 -18
15 -33 11 -16 18 -29 14 -29 -3 0 1 -13 10 -29 8 -17 17 -40 19 -53 3 -13 5
-23 7 -23 3 0 10 -49 12 -87 1 -21 4 -38 7 -38 3 0 6 -18 7 -40 1 -22 0 -40
-3 -40 -7 0 -350 57 -394 66 -19 3 -46 8 -60 9 -14 2 -27 3 -30 4 -9 2 -42 61
-35 61 4 0 -7 18 -24 39 -36 45 -36 50 -15 111 14 40 18 51 23 70 0 3 13 37
27 75 14 39 27 80 30 92 2 12 13 42 24 67 10 25 17 46 14 46 -2 0 2 13 10 29
9 16 12 32 8 35 -3 4 1 4 11 0 9 -3 17 -10 17 -15z m-2890 -473 c0 -4 7 -3 15
4 12 10 15 10 15 0 0 -8 3 -10 6 -7 4 3 15 2 25 -3 10 -6 29 -11 43 -12 19 -2
23 -6 16 -18 -7 -12 -106 -182 -158 -269 -5 -8 -27 -15 -53 -17 -52 -2 -80 -9
-108 -24 -12 -6 -21 -8 -21 -5 0 4 -7 -1 -16 -10 -9 -9 -22 -15 -28 -13 -19 5
-296 172 -296 178 0 4 28 29 63 57 89 73 214 130 300 138 15 1 30 4 32 6 8 8
165 4 165 -5z m1722 -3 c2 -7 112 -64 128 -68 28 -6 310 -158 306 -164 -3 -5
1 -29 8 -55 8 -25 12 -46 10 -46 -6 0 24 -47 58 -92 l29 -37 -22 -78 c-12 -43
-24 -85 -27 -93 -7 -21 -10 -32 -16 -56 -2 -11 -10 -39 -16 -61 l-12 -40 -67
0 c-36 -1 -70 -2 -76 -3 -5 -1 -14 -1 -20 0 -5 1 -32 2 -60 2 -50 -1 -50 -1
-100 64 -96 124 -157 264 -171 394 -12 115 -4 263 17 303 6 9 7 17 4 17 -4 0
-3 5 0 10 7 12 22 13 27 3z m-1212 -356 c38 -81 53 -128 65 -217 8 -60 8 -56
2 -126 -10 -94 -10 -94 -81 -93 -33 1 -65 1 -71 -1 -5 -1 -14 -1 -20 0 -5 1
-50 2 -98 2 -85 0 -88 0 -81 21 3 12 10 27 14 32 4 6 7 46 6 90 -1 65 -7 90
-29 134 -15 30 -23 57 -19 60 12 9 67 105 64 114 -1 4 2 7 6 7 4 0 16 15 26
33 10 17 32 54 49 81 l31 49 48 -52 c27 -29 66 -89 88 -134z m2280 -63 c14 -1
25 -2 25 -4 0 -2 26 -6 95 -14 19 -2 35 -5 35 -6 0 -2 35 -8 80 -14 22 -2 40
-5 40 -6 0 -3 42 -11 75 -13 20 -2 41 -7 48 -11 7 -4 19 -5 27 -2 8 3 15 1 15
-5 0 -6 4 -7 10 -4 6 3 7 -1 4 -9 -3 -9 -11 -16 -17 -16 -6 0 -8 -3 -5 -6 8
-7 -55 -127 -90 -174 -31 -41 -142 -156 -142 -147 0 3 -12 -5 -27 -19 -28 -26
-143 -94 -166 -98 -6 -1 -21 -7 -32 -13 -11 -6 -42 -16 -70 -23 l-50 -12 -55
53 c-59 58 -109 95 -121 92 -17 -5 -20 52 -5 89 4 9 8 22 10 30 1 7 4 18 7 23
4 6 17 49 30 97 21 77 27 89 51 97 16 6 28 7 28 3 0 -4 4 -2 8 3 4 6 26 23 50
38 23 15 54 41 69 57 14 16 31 26 37 23 6 -4 22 -8 36 -9z m-3480 -35 c0 -5 4
-8 8 -5 5 3 18 -4 30 -14 12 -11 28 -20 36 -20 8 0 16 -3 18 -8 2 -4 44 -32
95 -62 l92 -55 -1 -41 c0 -22 3 -51 6 -65 14 -47 57 -127 86 -156 l30 -30 -58
-61 c-35 -36 -73 -90 -93 -131 -19 -39 -38 -70 -43 -71 -10 0 -113 105 -140
144 -26 36 -43 65 -56 96 -6 14 -15 34 -20 45 -45 101 -57 286 -25 389 16 50
35 75 35 45z"/>
</g>
</svg>
